<svg xmlns="http://www.w3.org/2000/svg" viewBox="0 0 419.84 419.84"><path d="M209.92 0C94.72 0 0 94.72 0 209.92s94.72 209.92 209.92 209.92 209.92-94.72 209.92-209.92S325.12 0 209.92 0zm98.304 229.376h-78.848v78.848c0 11.264-8.704 19.456-19.456 19.456s-19.456-8.704-19.456-19.456v-78.848h-78.848c-11.264 0-19.456-8.704-19.456-19.456s8.192-19.456 19.456-19.456h78.848v-78.848c0-11.264 8.704-19.456 19.456-19.456 10.752 0 19.456 8.704 19.456 19.456v78.848h78.848c11.264 0 19.456 8.704 19.456 19.456 0 10.752-8.704 19.456-19.456 19.456z" fill="#505763"/></svg>