<svg xmlns="http://www.w3.org/2000/svg" viewBox="0 0 300 300"><path d="M149.996 0C67.157 0 .001 67.161.001 149.997.001 232.837 67.157 300 149.996 300s150.003-67.163 150.003-150.003S232.835 0 149.996 0zM90.318 204.463a10.356 10.356 0 0 1-10.361-10.364 10.356 10.356 0 0 1 10.361-10.359c5.724 0 10.361 4.635 10.361 10.359 0 5.729-4.637 10.364-10.361 10.364zm0-44.102c-5.727 0-10.361-4.635-10.361-10.367a10.356 10.356 0 0 1 10.361-10.359c5.724 0 10.361 4.635 10.361 10.359 0 5.733-4.637 10.367-10.361 10.367zm0-44.101a10.356 10.356 0 0 1-10.361-10.364 10.356 10.356 0 0 1 10.361-10.359c5.724 0 10.361 4.635 10.361 10.359 0 5.729-4.637 10.364-10.361 10.364zm129.726 87.554h-97.143c-5.729 0-10.374-4.645-10.374-10.374s4.645-10.374 10.374-10.374h97.143c5.729 0 10.374 4.645 10.374 10.374s-4.645 10.374-10.374 10.374zm0-43.766h-97.143c-5.729 0-10.374-4.645-10.374-10.374s4.645-10.374 10.374-10.374h97.143c5.729 0 10.374 4.645 10.374 10.374 0 5.728-4.645 10.374-10.374 10.374zm0-43.767h-97.143c-5.729 0-10.374-4.645-10.374-10.374s4.645-10.374 10.374-10.374h97.143c5.729 0 10.374 4.645 10.374 10.374s-4.645 10.374-10.374 10.374z" fill="#505763"/></svg>